<svg xmlns="http://www.w3.org/2000/svg" fill-rule="evenodd" width="32" height="32" viewBox="0 0 394 394" clip-rule="evenodd">
  <path fill="#fff" d="M 165.00,0.21
           C 144.92,3.46 129.70,6.74 111.00,15.31
             59.31,38.98 22.90,84.77 7.43,139.00
             -0.36,166.28 -0.32,184.23 0.00,212.00
             0.17,225.96 5.53,249.59 10.00,263.00
             27.79,316.39 65.13,360.45 118.00,381.60
             132.42,387.37 155.54,393.82 171.00,394.00
             171.00,394.00 195.00,394.00 195.00,394.00
             218.21,393.96 248.70,383.70 269.00,372.69
             286.79,363.05 306.29,347.47 319.25,332.00
             329.79,319.42 339.37,305.72 346.73,291.00
             385.94,212.58 371.11,111.60 308.00,50.01
             294.80,37.14 278.48,25.98 262.00,17.75
             243.76,8.66 215.42,0.03 195.00,0.21
             195.00,0.21 165.00,0.21 165.00,0.21 Z
           M 173.00,99.29
           C 222.91,94.62 274.37,128.62 275.00,182.00
             275.00,182.00 275.00,191.00 275.00,191.00
             274.96,217.17 257.86,243.14 240.00,261.00
             226.79,274.21 200.68,294.76 181.00,293.96
             164.63,293.30 140.23,274.19 129.00,263.00
             116.47,250.51 105.43,235.64 99.06,219.00
             87.48,188.73 92.71,152.03 115.09,128.00
             121.19,121.45 130.08,114.99 138.00,110.78
             149.69,104.58 159.96,101.28 173.00,99.29 Z
           M 135.00,212.45
           C 124.57,214.62 120.39,222.03 127.39,231.00
             132.16,237.11 140.29,241.18 148.00,241.81
             158.85,242.71 167.29,234.44 160.85,224.00
             155.70,215.64 144.50,211.42 135.00,212.45 Z
           M 228.00,212.46
           C 220.87,214.05 213.45,216.96 208.99,223.09
             202.44,232.07 207.16,240.90 218.00,241.81
             227.33,242.60 239.02,237.14 243.77,229.00
             250.65,217.23 238.43,211.12 228.00,212.46 Z" />
</svg>
