<svg width="200" height="200" viewBox="0 0 200 200" fill="none" xmlns="http://www.w3.org/2000/svg">
<path fill-rule="evenodd" clip-rule="evenodd" d="M100 0C44.7716 0 0 44.7711 0 100C0 155.229 44.7716 200 100 200C155.228 200 200 155.229 200 100C200 44.7711 155.228 0 100 0ZM43.0964 43.0968C33.3333 52.8592 33.3333 68.5731 33.3333 100C33.3333 131.427 33.3333 147.141 43.0964 156.903C52.8596 166.667 68.573 166.667 100 166.667C131.427 166.667 147.14 166.667 156.904 156.903C166.667 147.141 166.667 131.427 166.667 100C166.667 68.5731 166.667 52.8592 156.904 43.0968C147.14 33.3333 131.427 33.3333 100 33.3333C68.573 33.3333 52.8596 33.3333 43.0964 43.0968Z" fill="white"/>
<path d="M122.222 77.7778C122.222 75.7126 122.222 74.6801 122.393 73.8214C123.094 70.2953 125.851 67.5389 129.377 66.8375C130.236 66.6667 131.268 66.6667 133.333 66.6667C135.398 66.6667 136.431 66.6667 137.29 66.8375C140.816 67.5389 143.572 70.2953 144.274 73.8214C144.444 74.6801 144.444 75.7126 144.444 77.7778V88.8889C144.444 90.954 144.444 91.9866 144.274 92.8453C143.572 96.3714 140.816 99.1278 137.29 99.8292C136.431 100 135.398 100 133.333 100C131.268 100 130.236 100 129.377 99.8292C125.851 99.1278 123.094 96.3714 122.393 92.8453C122.222 91.9866 122.222 90.954 122.222 88.8889V77.7778Z" fill="white"/>
<path d="M83.3333 77.7778C83.3333 75.7126 83.3333 74.6801 83.5041 73.8214C84.2055 70.2953 86.962 67.5389 90.4881 66.8375C91.3467 66.6667 92.3793 66.6667 94.4444 66.6667C96.5096 66.6667 97.5422 66.6667 98.4008 66.8375C101.927 67.5389 104.683 70.2953 105.385 73.8214C105.556 74.6801 105.556 75.7126 105.556 77.7778V88.8889C105.556 90.954 105.556 91.9866 105.385 92.8453C104.683 96.3714 101.927 99.1278 98.4008 99.8292C97.5422 100 96.5096 100 94.4444 100C92.3793 100 91.3467 100 90.4881 99.8292C86.962 99.1278 84.2055 96.3714 83.5041 92.8453C83.3333 91.9866 83.3333 90.954 83.3333 88.8889V77.7778Z" fill="white"/>
</svg>
