<svg width="80" height="32" viewBox="0 0 654 200" fill="none" xmlns="http://www.w3.org/2000/svg">
<path d="M573.831 158.972C572.863 158.972 572.003 158.649 571.25 158.004C570.605 157.251 570.282 156.391 570.282 155.423C570.282 155.1 570.336 154.724 570.444 154.294C570.659 153.864 570.981 153.326 571.411 152.681L594.064 122.3C596.896 118.501 596.909 113.296 594.094 109.484L573.347 81.3837C573.024 80.846 572.756 80.3621 572.541 79.9319C572.433 79.5018 572.379 79.0716 572.379 78.6415C572.379 77.6737 572.702 76.8671 573.347 76.2219C574.1 75.4692 574.96 75.0928 575.928 75.0928H589.962C591.252 75.0928 592.22 75.4154 592.865 76.0606C593.51 76.7058 593.994 77.2973 594.317 77.835L612.544 102.031L630.772 77.835C631.202 77.2973 631.686 76.7058 632.224 76.0606C632.869 75.4154 633.837 75.0928 635.127 75.0928H648.515C649.483 75.0928 650.29 75.4692 650.935 76.2219C651.688 76.8671 652.064 77.6199 652.064 78.4802C652.064 79.0179 651.957 79.5018 651.742 79.9319C651.634 80.3621 651.419 80.846 651.096 81.3837L630.08 109.756C627.239 113.591 627.265 118.84 630.145 122.646L652.871 152.681C653.301 153.326 653.57 153.864 653.677 154.294C653.892 154.724 654 155.1 654 155.423C654 156.391 653.623 157.251 652.871 158.004C652.225 158.649 651.419 158.972 650.451 158.972H635.772C634.589 158.972 633.675 158.703 633.03 158.165C632.385 157.52 631.847 156.928 631.417 156.391L612.06 130.743L592.381 156.391C591.951 156.928 591.413 157.52 590.768 158.165C590.23 158.703 589.316 158.972 588.026 158.972H573.831Z" fill="white"/>
<path d="M545.172 158.972C544.096 158.972 543.182 158.595 542.429 157.842C541.677 157.09 541.3 156.176 541.3 155.1V78.9641C541.3 77.8887 541.677 76.9747 542.429 76.2219C543.182 75.4692 544.096 75.0928 545.172 75.0928H558.56C559.743 75.0928 560.657 75.4692 561.302 76.2219C562.055 76.9747 562.431 77.8887 562.431 78.9641V155.1C562.431 156.176 562.055 157.09 561.302 157.842C560.657 158.595 559.743 158.972 558.56 158.972H545.172Z" fill="white"/>
<path d="M405.178 189.62C404.318 189.62 403.565 189.297 402.92 188.652C402.274 188.007 401.952 187.254 401.952 186.394C401.952 185.963 401.952 185.533 401.952 185.103C402.059 184.781 402.274 184.35 402.597 183.813L415.179 153.971L384.208 80.8998C383.778 79.8244 383.563 79.0716 383.563 78.6415C383.671 77.6737 384.047 76.8671 384.692 76.2219C385.337 75.4692 386.144 75.0928 387.112 75.0928H400.177C401.468 75.0928 402.436 75.4154 403.081 76.0606C403.726 76.7058 404.21 77.4048 404.533 78.1576L425.986 130.904L448.085 78.1576C448.408 77.2973 448.892 76.5983 449.537 76.0606C450.182 75.4154 451.15 75.0928 452.44 75.0928H465.345C466.205 75.0928 466.958 75.4154 467.603 76.0606C468.356 76.7058 468.732 77.4586 468.732 78.3189C468.732 78.9641 468.517 79.8244 468.087 80.8998L422.438 186.555C422.007 187.415 421.47 188.114 420.825 188.652C420.179 189.297 419.212 189.62 417.921 189.62H405.178Z" fill="white"/>
<path d="M357.811 158.972C356.736 158.972 355.822 158.596 355.069 157.843C354.316 157.09 353.94 156.176 353.94 155.101V48.3166C353.94 47.2413 354.316 46.3272 355.069 45.5745C355.822 44.8217 356.736 44.4453 357.811 44.4453H371.2C372.275 44.4453 373.189 44.8217 373.942 45.5745C374.695 46.3272 375.071 47.2413 375.071 48.3166V155.101C375.071 156.176 374.695 157.09 373.942 157.843C373.189 158.596 372.275 158.972 371.2 158.972H357.811Z" fill="white"/>
<path d="M243.387 158.971C242.527 158.971 241.721 158.649 240.968 158.004C240.323 157.358 240 156.552 240 155.584C240 155.154 240.108 154.67 240.323 154.132L279.197 50.0903C279.52 49.0149 280.111 48.1008 280.972 47.3481C281.939 46.4878 283.23 46.0576 284.843 46.0576H302.425C304.038 46.0576 305.275 46.4878 306.135 47.3481C306.996 48.1008 307.641 49.0149 308.071 50.0903L346.946 154.132C347.053 154.67 347.107 155.154 347.107 155.584C347.107 156.552 346.784 157.358 346.139 158.004C345.494 158.649 344.741 158.971 343.881 158.971H329.847C328.342 158.971 327.213 158.649 326.46 158.004C325.815 157.251 325.384 156.552 325.169 155.907L317.588 136.227H269.68L262.099 155.907C261.884 156.552 261.4 157.251 260.647 158.004C260.002 158.649 258.927 158.971 257.421 158.971H243.387ZM275.326 117.677H311.942L293.553 67.8339L275.326 117.677Z" fill="white"/>
<path fill-rule="evenodd" clip-rule="evenodd" d="M463.412 116.258L479.001 154.939C479.539 156.014 480.184 156.982 480.936 157.842C481.797 158.595 483.087 158.972 484.808 158.972H496.744C498.465 158.972 499.755 158.595 500.616 157.842C501.476 156.982 502.121 156.014 502.551 154.939L532.877 80.0932C532.984 79.5556 533.038 79.0716 533.038 78.6415C533.038 77.6737 532.662 76.8671 531.909 76.2219C531.264 75.4692 530.511 75.0928 529.651 75.0928H516.424C515.133 75.0928 514.165 75.4692 513.52 76.2219C512.875 76.8671 512.445 77.5124 512.23 78.1576L490.776 134.776L474.153 90.907L463.412 116.258Z" fill="white"/>
<path fill-rule="evenodd" clip-rule="evenodd" d="M100 0C44.7716 0 0 44.7711 0 100C0 155.229 44.7716 200 100 200C155.228 200 200 155.229 200 100C200 44.7711 155.228 0 100 0ZM43.0964 43.0968C33.3333 52.8592 33.3333 68.5731 33.3333 100C33.3333 131.427 33.3333 147.141 43.0964 156.903C52.8596 166.667 68.573 166.667 100 166.667C131.427 166.667 147.14 166.667 156.904 156.903C166.667 147.141 166.667 131.427 166.667 100C166.667 68.5731 166.667 52.8592 156.904 43.0968C147.14 33.3333 131.427 33.3333 100 33.3333C68.573 33.3333 52.8596 33.3333 43.0964 43.0968Z" fill="white"/>
<path d="M122.222 77.7778C122.222 75.7126 122.222 74.6801 122.393 73.8214C123.094 70.2953 125.851 67.5389 129.377 66.8375C130.236 66.6667 131.268 66.6667 133.333 66.6667C135.398 66.6667 136.431 66.6667 137.29 66.8375C140.816 67.5389 143.572 70.2953 144.274 73.8214C144.444 74.6801 144.444 75.7126 144.444 77.7778V88.8889C144.444 90.954 144.444 91.9866 144.274 92.8453C143.572 96.3714 140.816 99.1278 137.29 99.8292C136.431 100 135.398 100 133.333 100C131.268 100 130.236 100 129.377 99.8292C125.851 99.1278 123.094 96.3714 122.393 92.8453C122.222 91.9866 122.222 90.954 122.222 88.8889V77.7778Z" fill="white"/>
<path d="M83.3333 77.7778C83.3333 75.7126 83.3333 74.6801 83.5041 73.8214C84.2055 70.2953 86.962 67.5389 90.4881 66.8375C91.3467 66.6667 92.3793 66.6667 94.4444 66.6667C96.5096 66.6667 97.5422 66.6667 98.4008 66.8375C101.927 67.5389 104.683 70.2953 105.385 73.8214C105.556 74.6801 105.556 75.7126 105.556 77.7778V88.8889C105.556 90.954 105.556 91.9866 105.385 92.8453C104.683 96.3714 101.927 99.1278 98.4008 99.8292C97.5422 100 96.5096 100 94.4444 100C92.3793 100 91.3467 100 90.4881 99.8292C86.962 99.1278 84.2055 96.3714 83.5041 92.8453C83.3333 91.9866 83.3333 90.954 83.3333 88.8889V77.7778Z" fill="white"/>
</svg>
